<?xml version="1.0" encoding="UTF-8"?>
<svg width="30px" height="30px" viewBox="0 0 30 30" version="1.1" xmlns="http://www.w3.org/2000/svg" xmlns:xlink="http://www.w3.org/1999/xlink">
    <!-- Generator: Sketch 44.1 (41455) - http://www.bohemiancoding.com/sketch -->
    <title>Group</title>
    <desc>Created with Sketch.</desc>
    <defs></defs>
    <g id="website" stroke="none" stroke-width="1" fill="none" fill-rule="evenodd">
        <g id="02.article_mobile" transform="translate(-189.000000, -384.000000)">
            <g id="Group" transform="translate(190.000000, 385.000000)">
                <circle id="Oval-2" stroke="#C7BCB2" cx="14" cy="14" r="14"></circle>
                <g id="icon_pinterest" transform="translate(8.000000, 7.000000)" fill-rule="nonzero" fill="#C7BCB2">
                    <path d="M4.61538462,9.70588235 C4.52767972,11.9859161 4.03300217,13.9657555 2.76923077,15 C2.11537472,11.8786667 3.23198549,9.53462916 3.69230769,7.05882353 C2.86656887,5.59910015 3.85669521,2.68671569 5.53846154,3.52941176 C8.01541093,4.28720715 3.73437551,8.78418316 6.46153846,9.70588235 C9.60880633,9.93227704 10.8338544,4.28330717 9.23076923,2.64705882 C6.28488789,-0.206468873 1.14761453,2.3856673 1.84615385,6.17647059 C1.93305203,7.11214208 2.91947639,7.39369058 1.84615385,8.82352941 C0.453029877,8.30418572 -0.0606203339,6.98464276 0,5.29411765 C0.111984647,2.34561751 2.66635326,0.329328269 5.53846154,0 C8.46859541,-0.302318361 11.5096206,1.20712359 12,4.41176471 C12.4024156,7.51653992 10.4672038,11.1399206 7.38461538,10.5882353 C6.06323163,10.8082724 5.66881614,10.3558748 4.61538462,9.70588235 Z" id="Shape"></path>
                </g>
            </g>
        </g>
    </g>
</svg>