<?xml version="1.0" encoding="UTF-8"?>
<svg width="23px" height="20px" viewBox="0 0 23 20" version="1.1" xmlns="http://www.w3.org/2000/svg" xmlns:xlink="http://www.w3.org/1999/xlink">
    <!-- Generator: Sketch 44.1 (41455) - http://www.bohemiancoding.com/sketch -->
    <title>Fill 1</title>
    <desc>Created with Sketch.</desc>
    <defs></defs>
    <g id="Symbols" stroke="none" stroke-width="1" fill="none" fill-rule="evenodd">
        <g id="footer_mobile" transform="translate(-264.000000, -520.000000)" fill="#C7BCB2">
            <g id="Group" transform="translate(20.000000, 510.000000)">
                <path d="M256.999501,10.0041158 C256.546265,9.99862807 255.961798,9.99862807 255.763513,10.0041158 C255.240244,10.701057 255.240244,11.2700324 255.763513,11.8136396 L263.179443,19.0517348 L248.347583,19.0517348 C248.009929,19.0486933 247.885976,19.0582828 247.729589,19.0517348 C246.614842,18.9755736 245.756201,17.953096 245.875606,16.6390364 C246.003286,16.4151842 245.673703,15.9828588 245.257612,16.0358618 C244.656632,15.8190387 244.218692,16.1602641 244.021624,16.6390364 C243.813998,18.3826245 245.12084,20.4495555 247.111595,20.8612587 C247.529714,20.8139555 247.874894,20.8135559 247.729589,20.8612587 C248.117875,20.8179511 248.125673,20.817152 248.347583,20.8612587 L263.179443,20.8612587 L255.763513,28.0993539 C255.240244,28.6425616 255.240244,29.2119365 255.763513,29.9088777 C255.961798,29.9143654 256.546265,29.9143654 256.999501,29.9088777 L266.269414,20.8612587 C266.548086,20.5621735 266.887408,20.258084 266.887408,20.258084 C267.138006,19.9014668 266.759453,19.5898748 266.269414,19.0517348 L256.999501,10.0041158 Z" id="Fill-1"></path>
            </g>
        </g>
    </g>
</svg>