<?xml version="1.0" encoding="UTF-8"?>
<svg width="48px" height="48px" viewBox="0 0 48 48" version="1.1" xmlns="http://www.w3.org/2000/svg" xmlns:xlink="http://www.w3.org/1999/xlink">
    <!-- Generator: Sketch 44.1 (41455) - http://www.bohemiancoding.com/sketch -->
    <title>arrow_slider copy 2</title>
    <desc>Created with Sketch.</desc>
    <defs>
        <circle id="path-1" cx="24" cy="24" r="20"></circle>
    </defs>
    <g id="website" stroke="none" stroke-width="1" fill="none" fill-rule="evenodd">
        <g id="01.homepage_tablet" transform="translate(-720.000000, -2029.000000)">
            <g id="Group-13" transform="translate(0.000000, 1636.000000)">
                <g id="arrow_slider" transform="translate(744.000000, 417.000000) scale(-1, 1) translate(-744.000000, -417.000000) translate(720.000000, 393.000000)">
                    <circle id="Oval" fill="#F4EFEA" fill-rule="evenodd" transform="translate(24.000000, 24.000000) scale(-1, 1) translate(-24.000000, -24.000000) " cx="24" cy="24" r="24"></circle>
                    <g id="Oval-Copy" transform="translate(24.000000, 24.000000) scale(-1, 1) translate(-24.000000, -24.000000) ">
                        <use fill="#C7BCB2" fill-rule="evenodd" xlink:href="#path-1"></use>
                        <circle stroke="#F4EFEA" stroke-width="2" cx="24" cy="24" r="19"></circle>
                    </g>
                    <path d="M25.3702649,15.0037219 C24.9738332,14.9987594 24.4626179,14.9987594 24.2891838,15.0037219 C23.8314968,15.6339702 23.8314968,16.1484982 24.2891838,16.6400856 L30.7756703,23.1855401 L17.8026973,23.1855401 C17.5073616,23.1827896 17.3989437,23.1914615 17.2621568,23.1855401 C16.2871223,23.116667 15.5360953,22.1920342 15.6405352,21.0037219 C15.752213,20.801291 15.4639364,20.4103365 15.0999946,20.4582674 C14.5743357,20.2621929 14.1912832,20.5707651 14.0189136,21.0037219 C13.8373097,22.5804595 14.9803641,24.449598 16.7216163,24.8219038 C17.0873322,24.7791272 17.3892508,24.7787659 17.2621568,24.8219038 C17.6017785,24.7827404 17.6085995,24.7820178 17.8026973,24.8219038 L30.7756703,24.8219038 L24.2891838,31.3673583 C23.8314968,31.8585844 23.8314968,32.3734737 24.2891838,33.0037219 C24.4626179,33.0086845 24.9738332,33.0086845 25.3702649,33.0037219 L33.478373,24.8219038 C33.7221191,24.5514392 34.0189136,24.2764492 34.0189136,24.2764492 C34.2381038,23.953958 33.9069948,23.6721834 33.478373,23.1855401 L25.3702649,15.0037219 Z" id="Fill-1" fill="#F4EFEA" fill-rule="evenodd" transform="translate(24.044249, 24.003722) scale(-1, 1) translate(-24.044249, -24.003722) "></path>
                </g>
            </g>
        </g>
    </g>
</svg>