<?xml version="1.0" encoding="UTF-8"?>
<svg width="40px" height="27px" viewBox="0 0 40 27" version="1.1" xmlns="http://www.w3.org/2000/svg" xmlns:xlink="http://www.w3.org/1999/xlink">
    <!-- Generator: Sketch 44.1 (41455) - http://www.bohemiancoding.com/sketch -->
    <title>H_logo</title>
    <desc>Created with Sketch.</desc>
    <defs></defs>
    <g id="Symbols" stroke="none" stroke-width="1" fill="none" fill-rule="evenodd">
        <g id="top_bar_mobile" transform="translate(-21.000000, -20.000000)" fill="#F86968">
            <g id="H_logo" transform="translate(21.000000, 20.000000)">
                <path d="M34.836624,9.26066588 C34.5203321,9.26722893 34.0658505,9.34737773 33.755776,9.39590454 C33.7447449,9.39749558 33.7343155,9.40067767 33.7232844,9.40266647 L33.7230839,9.40187095 L28.9203401,10.2681939 L28.9203401,1.20382292 C28.9203401,0.538965822 28.3768074,0.000198880377 27.7063166,0.000198880377 C27.0356252,0.000198880377 26.492293,0.538965822 26.492293,1.20382292 L26.492293,10.6953889 L14.6466884,12.7780642 L14.6466884,1.20382292 C14.6466884,0.538965822 14.1029551,0.000198880377 13.4324643,0.000198880377 C12.761773,0.000198880377 12.2184408,0.538965822 12.2184408,1.20382292 L12.2184408,13.2048615 L6.68623996,14.1777843 L6.68583883,14.1767899 C6.66879075,14.1805687 6.65134154,14.1831541 6.6340929,14.1869328 L6.60581315,14.1919048 L6.60581315,14.1923026 C6.35671069,14.2428182 6.10179181,14.2672805 5.84286163,14.2627062 C4.29790485,14.234863 2.94188087,13.1829847 2.54496155,11.7043091 C2.4619274,11.3946523 2.42281711,11.0732616 2.42863351,10.7488877 C2.4619274,8.92913229 3.92244606,7.4381261 5.75340938,7.35459635 C6.4230979,7.32416765 6.94115883,6.76093842 6.91047229,6.09667796 C6.87958519,5.43261638 6.31278682,4.91890837 5.6418949,4.94933707 C2.53493327,5.09093989 0.0573464782,7.61930613 0.000987545971,10.7053329 C-0.00904073378,11.2532484 0.0573464782,11.797584 0.198344091,12.3234237 L0.198344091,12.3236226 C0.872645622,14.8356806 3.17574035,16.6230186 5.79893777,16.6701532 C6.19685991,16.6773129 6.58996847,16.6442988 6.97525498,16.574094 L6.97545555,16.5752873 L12.2184408,15.6532778 L12.2184408,25.7961771 C12.2184408,26.4610342 12.761773,27 13.4324643,27 C14.1029551,27 14.6466884,26.4610342 14.6466884,25.7961771 L14.6466884,15.2262817 L26.492293,13.1430097 L26.492293,25.7961771 C26.492293,26.4610342 27.0356252,27 27.7063166,27 C28.3768074,27 28.9203401,26.4610342 28.9203401,25.7961771 L28.9203401,12.7160136 L34.1430682,11.7733206 C34.3109416,11.7474661 34.4719958,11.7066956 34.6430782,11.6880009 C36.1667751,11.5227313 37.5438584,12.6963244 37.5735421,14.1767899 C37.5867795,14.8177814 38.1250975,15.3217443 38.7636984,15.3330804 C38.786964,15.3334782 38.8106307,15.3332793 38.834498,15.3322849 C39.5043871,15.3062316 39.9997842,14.7471788 39.9997842,14.0821229 C39.9997842,11.6699028 37.7821304,9.1986152 34.836624,9.26066588" id="H"></path>
            </g>
        </g>
    </g>
</svg>