<?xml version="1.0" encoding="UTF-8"?>
<svg width="150px" height="44px" viewBox="0 0 150 44" version="1.1" xmlns="http://www.w3.org/2000/svg" xmlns:xlink="http://www.w3.org/1999/xlink">
    <!-- Generator: Sketch 44.1 (41455) - http://www.bohemiancoding.com/sketch -->
    <title>HUBERT_logo</title>
    <desc>Created with Sketch.</desc>
    <defs></defs>
    <g id="Symbols" stroke="none" stroke-width="1" fill="none" fill-rule="evenodd">
        <g id="top_bar" transform="translate(-46.000000, -76.000000)" fill="#FFF">
            <g id="Group-13">
                <g id="HUBERT_logo" transform="translate(46.000000, 76.000000)">
                    <g>
                        <path d="M98.2273185,22.1611425 C99.0650202,21.9857452 99.7478831,21.2042932 99.7478831,20.2341836 C99.7478831,19.0892795 98.6074597,18.1842658 97.4824597,18.4196356 L87.4980847,20.1835534 L87.4980847,20.1838548 L87.4977823,20.1835534 L87.4977823,43.4116356 L88.4815524,43.4116356 L91.1528226,43.4116356 L97.8498992,43.4116356 C98.8496976,43.4116356 99.6595766,42.6181288 99.6595766,41.6218 L99.6595766,41.6034164 C99.6595766,40.607389 98.8496976,39.8319644 97.8498992,39.8319644 L91.1528226,39.8319644 L91.1528226,35.0434986 L97.8498992,35.0434986 C98.8496976,35.0434986 99.6595766,34.2358274 99.6595766,33.2401014 L99.6595766,33.2045397 C99.6595766,32.2085123 98.8496976,31.4008411 97.8498992,31.4008411 L91.1528226,31.4008411 L91.1528226,23.4070055 L98.2273185,22.1611425 Z" id="Fill-1"></path>
                        <path d="M136.900101,11.4354192 L122.175302,14.0600493 C121.285585,14.2164603 120.62752,14.9722959 120.598185,15.8718849 L120.596673,15.8525973 C120.556754,17.0613918 121.644254,18.0197479 122.839415,17.8093918 L128.180141,16.8573644 L128.180141,41.9668986 C128.180141,42.9725699 128.998185,43.7880767 130.007661,43.7880767 C131.017137,43.7880767 131.835484,42.9725699 131.835484,41.9668986 L131.835484,16.2061041 L137.564214,15.1847616 C138.453931,15.0286521 139.111694,14.3116932 139.141633,13.4121041 L139.141633,13.372926 C139.181552,12.1641315 138.095262,11.2253644 136.900101,11.4354192" id="Fill-3"></path>
                        <path d="M76.7655847,23.1198 C80.077379,23.1198 82.7722379,25.8053068 82.7722379,29.1059096 C82.7722379,30.7233616 82.1241532,32.1922384 81.0741532,33.2705397 C82.1241532,34.3488411 82.7722379,35.8177178 82.7722379,37.4354712 C82.7722379,40.736074 80.077379,43.4215808 76.7655847,43.4215808 L73.8995565,43.4215808 L72.4796976,43.4215808 L70.2445161,43.4215808 L70.2445161,23.1198 L71.5246573,23.1198 L73.8995565,23.1198 L76.7655847,23.1198 Z M76.7655847,39.8289507 C78.0623589,39.8289507 79.1168952,38.6759096 79.1168952,37.3836356 C79.1168952,36.0913616 78.0623589,35.0401836 76.7655847,35.0401836 L73.8995565,35.0401836 L73.8995565,39.8289507 L76.7655847,39.8289507 Z M76.7655847,26.6165945 L73.8995565,26.6165945 L73.8995565,31.4008411 L76.7655847,31.4008411 C78.0623589,31.4008411 79.1168952,30.349663 79.1168952,29.057389 C79.1168952,27.715389 78.0623589,26.6165945 76.7655847,26.6165945 Z" id="Fill-5"></path>
                        <path d="M141.670857,0.00189863014 C141.160675,0.0124465753 140.427611,0.142336986 139.927409,0.22129589 C139.909869,0.223706849 139.892631,0.228830137 139.875393,0.232145205 L139.875091,0.230939726 L46.6446472,16.7044192 L46.6446472,2.01203562 C46.6446472,0.934336986 45.7682359,0.0603643836 44.6867843,0.0603643836 C43.6050302,0.0603643836 42.7283165,0.934336986 42.7283165,2.01203562 L42.7283165,17.3963644 L23.6229738,20.7720082 L23.6229738,2.01203562 C23.6229738,0.934336986 22.7465625,0.0603643836 21.6651109,0.0603643836 C20.5833569,0.0603643836 19.7066431,0.934336986 19.7066431,2.01203562 L19.7066431,21.4642548 L10.7837601,23.0407205 L10.7834577,23.0392137 C10.7556351,23.0455425 10.7278125,23.0497616 10.6999899,23.0554877 L10.6543246,23.0636247 L10.6543246,23.0645288 C10.2527117,23.1465014 9.84172379,23.1862822 9.42408266,23.1784466 C6.9324496,23.1335425 4.74474798,21.4283918 4.10482863,19.0318986 C3.97085685,18.5298164 3.90795363,18.0090493 3.91732863,17.4831589 C3.97115927,14.5336521 6.32670363,12.1166658 9.27982863,11.9813507 C10.3600706,11.9322274 11.1956552,11.0193781 11.145756,9.94228219 C11.0961593,8.86609041 10.1819456,8.03340548 9.09958669,8.08252877 C4.08910282,8.31247397 0.0929334677,12.4105014 0.00160282258,17.412337 C-0.0147278226,18.3007753 0.0926310484,19.1828849 0.320050403,20.0357616 L0.320352823,20.0357616 L0.320050403,20.0357616 C1.4075504,24.1072685 5.12216734,27.004337 9.35301411,27.0808849 C9.9950504,27.092337 10.6289214,27.0389945 11.2500907,26.9253781 L11.2503931,26.9271863 L19.7066431,25.4326932 L19.7066431,41.8730219 C19.7066431,42.9507205 20.5833569,43.8243918 21.6651109,43.8243918 C22.7465625,43.8243918 23.6229738,42.9507205 23.6229738,41.8730219 L23.6229738,24.7404466 L42.7283165,21.3635973 L42.7283165,41.8730219 C42.7283165,42.9507205 43.6050302,43.8243918 44.6867843,43.8243918 C45.7682359,43.8243918 46.6446472,42.9507205 46.6446472,41.8730219 L46.6446472,20.6716521 L140.552208,4.07461096 C140.822873,4.03272055 141.082651,3.96641918 141.35876,3.93658356 C143.81622,3.66836438 146.037188,5.57091233 146.085575,7.97011781 C146.106139,9.00954247 146.974688,9.82625479 148.004425,9.84463836 C148.042228,9.8452411 148.080333,9.84493973 148.11874,9.84343288 C149.199587,9.8012411 149.998276,8.89472055 149.998276,7.81702192 C149.998276,3.90704932 146.42126,-0.0987589041 141.670857,0.00189863014" id="Fill-7"></path>
                        <path d="M108.66877,31.4008712 L108.66877,20.4050904 L109.104859,20.4050904 C112.146895,20.4050904 114.622198,22.8712 114.622198,25.9029808 C114.622198,28.9341589 112.146895,31.4008712 109.104859,31.4008712 L108.66877,31.4008712 Z M114.354254,33.4607342 C116.72371,31.8062137 118.277238,29.067063 118.277238,25.9710904 C118.277238,20.9312822 114.16252,16.8305425 109.104859,16.8305425 L107.387722,16.8305425 L105.562621,16.8305425 L105.013427,16.8305425 L105.013427,41.9641863 C105.013427,42.9716658 105.831472,43.7880767 106.840948,43.7880767 C107.850423,43.7880767 108.66877,42.9716658 108.66877,41.9641863 L108.66877,35.0402137 L109.104859,35.0402137 C109.838831,35.0402137 110.551935,35.023337 111.23631,34.8602959 L116.707077,43.0771452 C117.021593,43.5204603 117.70748,43.7675836 118.252137,43.7675836 C119.764234,43.7675836 120.484294,42.0328986 119.698306,40.9253644 L114.354254,33.4607342 Z" id="Fill-10"></path>
                        <path d="M63.3170867,24.2780849 C62.3076109,24.2780849 61.4895665,25.0932904 61.4895665,26.099263 L61.4895665,37.3207699 C61.4895665,38.9029616 60.197631,40.1904137 58.609627,40.1904137 C57.021623,40.1904137 55.7296875,38.9029616 55.7296875,37.3207699 L55.7296875,27.7354 C55.7296875,26.7294274 54.9116431,25.9139205 53.9021673,25.9139205 C52.8926915,25.9139205 52.0743448,26.7294274 52.0743448,27.7354 L52.0743448,37.3207699 C52.0743448,40.9112904 55.0063004,43.8330712 58.609627,43.8330712 C62.213256,43.8330712 65.1449093,40.9112904 65.1449093,37.3207699 L65.1449093,26.099263 C65.1449093,25.0932904 64.3265625,24.2780849 63.3170867,24.2780849" id="Fill-12"></path>
                    </g>
                </g>
            </g>
        </g>
    </g>
</svg>
