<?xml version="1.0" encoding="UTF-8"?>
<svg width="36px" height="33px" viewBox="0 0 36 33" version="1.1" xmlns="http://www.w3.org/2000/svg" xmlns:xlink="http://www.w3.org/1999/xlink">
    <!-- Generator: Sketch 44.1 (41455) - http://www.bohemiancoding.com/sketch -->
    <title>icon_arrow</title>
    <desc>Created with Sketch.</desc>
    <defs></defs>
    <g id="website" stroke="none" stroke-width="1" fill="none" fill-rule="evenodd">
        <g id="01.homepage_tablet" transform="translate(-351.000000, -398.000000)" fill="#FFFFFF">
            <g id="Group" transform="translate(0.000000, 61.000000)">
                <g id="icon_arrow" transform="translate(351.000000, 337.000000)">
                    <path d="M20.4324324,0 C19.7188554,-0.00909807174 18.7986678,-0.00909807174 18.4864865,0 C17.6626498,1.15545511 17.6626498,2.09875644 18.4864865,3 L30.1621622,15 L6.81081081,15 C6.27920646,14.9949574 6.08405433,15.0108558 5.83783784,15 C4.08277571,14.8737326 2.73092719,13.1785724 2.91891892,11 C3.11993905,10.6288766 2.60104117,9.91212662 1.94594595,10 C0.999759801,9.64053003 0.31026536,10.2062459 -1.89326617e-29,11 C-0.326886954,13.8906854 1.73061098,17.3174395 4.86486486,18 C5.52315351,17.9215763 6.06660695,17.9209139 5.83783784,18 C6.44915682,17.9282006 6.4614346,17.9268757 6.81081081,18 L30.1621622,18 L18.4864865,30 C17.6626498,30.9005811 17.6626498,31.8445449 18.4864865,33 C18.7986678,33.0090981 19.7188554,33.0090981 20.4324324,33 L35.027027,18 C35.4657699,17.5041482 36,17 36,17 C36.3945424,16.4087661 35.7985463,15.8921794 35.027027,15 L20.4324324,0 Z" id="Fill-1"></path>
                </g>
            </g>
        </g>
    </g>
</svg>