<?xml version="1.0" encoding="UTF-8"?>
<svg width="15px" height="18px" viewBox="0 0 15 18" version="1.1" xmlns="http://www.w3.org/2000/svg" xmlns:xlink="http://www.w3.org/1999/xlink">
    <!-- Generator: Sketch 44.1 (41455) - http://www.bohemiancoding.com/sketch -->
    <title>icon_pinterest</title>
    <desc>Created with Sketch.</desc>
    <defs></defs>
    <g id="Symbols" stroke="none" stroke-width="1" fill="none" fill-rule="evenodd">
        <g id="top_bar_tablet" transform="translate(-734.000000, -23.000000)" fill-rule="nonzero" fill="#C7BCB2">
            <g id="Group-3">
                <g id="Group-22" transform="translate(668.000000, 23.000000)">
                    <g id="icon_pinterest" transform="translate(66.000000, 0.000000)">
                        <path d="M5.38461538,11.6470588 C5.28229301,14.3830993 4.7051692,16.7589066 3.23076923,18 C2.46793717,14.2544 3.77064974,11.441555 4.30769231,8.47058824 C3.34433035,6.71892019 4.49947775,3.22405883 6.46153846,4.23529412 C9.35131275,5.14464858 4.35677142,10.5410198 7.53846154,11.6470588 C11.2102741,11.9187324 12.6394968,5.13996861 10.7692308,3.17647059 C7.33236921,-0.247762647 1.33888362,2.86280076 2.15384615,7.41176471 C2.25522737,8.5345705 3.40605578,8.8724287 2.15384615,10.5882353 C0.528534857,9.96502287 -0.0707237229,8.38157131 0,6.35294118 C0.130648755,2.81474101 3.11074548,0.395193923 6.46153846,0 C9.88002798,-0.362782034 13.4278907,1.4485483 14,5.29411765 C14.4694849,9.01984791 12.2117377,13.3679047 8.61538462,12.7058824 C7.07377023,12.9699268 6.61361882,12.4270497 5.38461538,11.6470588 Z" id="Shape"></path>
                    </g>
                </g>
            </g>
        </g>
    </g>
</svg>