<?xml version="1.0" encoding="UTF-8"?>
<svg width="30px" height="30px" viewBox="0 0 30 30" version="1.1" xmlns="http://www.w3.org/2000/svg" xmlns:xlink="http://www.w3.org/1999/xlink">
    <!-- Generator: Sketch 44.1 (41455) - http://www.bohemiancoding.com/sketch -->
    <title>Group 2</title>
    <desc>Created with Sketch.</desc>
    <defs></defs>
    <g id="website" stroke="none" stroke-width="1" fill="none" fill-rule="evenodd">
        <g id="02.article_mobile" transform="translate(-136.000000, -384.000000)">
            <g id="Group-2" transform="translate(137.000000, 385.000000)">
                <circle id="Oval-2-Copy-2" stroke="#C7BCB2" cx="14" cy="14" r="14"></circle>
                <g id="icon_facebook" transform="translate(7.000000, 8.000000)" fill="#C7BCB2">
                    <path d="M15,1.73333333 C14.4488466,1.79987 13.8545519,1.97638307 13.3333333,1.73333333 C13.8686388,1.64964611 14.3564008,1.00650007 15,0 C13.9910195,0.616856854 13.3324529,0.889137657 12.5,0.866666667 C12.0707871,0.398093312 11.2704702,0 10,0 C8.68638845,0 7.30850502,1.46937744 7.5,3.46666667 C7.30850502,3.53871154 7.33403768,3.78845876 7.5,4.33333333 C4.83007572,3.89173769 2.56295122,2.58666763 0.833333333,0.866666667 C0.779186476,1.08630651 0.627751365,1.64964611 0.833333333,2.6 C0.627751365,3.38848765 1.17098081,4.39310992 1.66666667,5.2 C1.4923402,4.96583851 1.01778482,4.81655352 0.833333333,4.33333333 L0.833333333,4.33333333 C0.6022187,6.20330781 1.66314492,7.52997256 3.33333333,7.8 C2.81299525,7.90741008 2.54182074,7.94590495 2.5,7.8 C2.06198274,7.94590495 1.86828667,7.92618807 1.66666667,7.8 C2.07254798,9.19088545 3.20919176,10.1410516 4.16666667,10.4 C3.50237718,11.0461505 2.17555908,11.5709952 0.833333333,11.2666667 C0.486001057,11.5709952 0.240359218,11.5559728 0,11.2666667 C1.36203557,12.4554384 2.97939778,13 5,13 C10.3785878,13 13.4733228,7.99942222 13.3333333,3.46666667 C13.4733228,3.51993355 13.4706815,3.37722086 13.3333333,3.46666667 C14.0658567,2.77444749 14.5888361,2.19702441 15,1.73333333" id="Fill-1"></path>
                </g>
            </g>
        </g>
    </g>
</svg>