<?xml version="1.0" encoding="UTF-8"?>
<svg width="18px" height="15px" viewBox="0 0 18 15" version="1.1" xmlns="http://www.w3.org/2000/svg" xmlns:xlink="http://www.w3.org/1999/xlink">
    <!-- Generator: Sketch 44.1 (41455) - http://www.bohemiancoding.com/sketch -->
    <title>icon_twitter</title>
    <desc>Created with Sketch.</desc>
    <defs></defs>
    <g id="Symbols" stroke="none" stroke-width="1" fill="none" fill-rule="evenodd">
        <g id="top_bar_tablet" transform="translate(-696.000000, -24.000000)" fill="#C7BCB2">
            <g id="Group-3">
                <g id="Group-22" transform="translate(668.000000, 23.000000)">
                    <g id="icon_facebook" transform="translate(28.000000, 1.000000)">
                        <path d="M18,2 C17.338616,2.07677308 16.6254622,2.280442 16,2 C16.6423666,1.90343782 17.2276809,1.16134624 18,0 C16.7892235,0.711757908 15.9989435,1.02592807 15,1 C14.4849445,0.459338437 13.5245642,0 12,0 C10.4236661,0 8.77020602,1.6954355 9,4 C8.77020602,4.0831287 8.80084522,4.37129857 9,5 C5.79609086,4.49046656 3.07554147,2.9846165 1,1 C0.935023772,1.25343059 0.753301638,1.90343782 1,3 C0.753301638,3.90979344 1.40517697,5.06897299 2,6 C1.79080824,5.72981366 1.22134179,5.55756175 1,5 L1,5 C0.722662441,7.15766286 1.9957739,8.68842987 4,9 C3.37559429,9.12393471 3.05018489,9.16835187 3,9 C2.47437929,9.16835187 2.241944,9.14560162 2,9 C2.48705758,10.6048678 3.85103011,11.7012133 5,12 C4.20285261,12.7455583 2.61067089,13.3511483 1,13 C0.583201268,13.3511483 0.288431062,13.3338148 0,13 C1.63444268,14.3716597 3.57527734,15 6,15 C12.4543053,15 16.1679873,9.23010256 16,4 C16.1679873,4.06146179 16.1648177,3.8967933 16,4 C16.879028,3.20128557 17.5066033,2.53502817 18,2" id="Fill-1"></path>
                    </g>
                </g>
            </g>
        </g>
    </g>
</svg>